<svg width="198" height="40" viewBox="0 0 198 40" fill="none" xmlns="http://www.w3.org/2000/svg">
<g clip-path="url(#clip0_917_3659)">
<path d="M63.106 5.20691C63.106 7.5581 61.1014 9.46753 58.6331 9.46753C56.1647 9.46753 54.1602 7.5581 54.1602 5.20691C54.1602 2.85571 56.1616 0.946289 58.6331 0.946289C61.1045 0.946289 63.106 2.85275 63.106 5.20691" fill="#244B5A"/>
<path d="M54.7959 16.5744V39.9263H62.7488V16.4766C61.457 16.9035 60.0781 17.1496 58.6338 17.1496C57.2923 17.1496 56.0067 16.945 54.7959 16.5744Z" fill="#00AC69"/>
<path d="M36.5209 8.07964L36.4058 7.87209C33.8627 3.69153 29.1533 1.08535 24.0921 1.05273H23.98C18.8815 1.05273 14.1253 3.66485 11.5698 7.87209L0.837308 28.3598L0.793731 28.4488C0.26769 29.525 0 30.6725 0 31.8644C0 36.3237 3.80991 39.9527 8.49136 39.9527H11.1434V32.3773H8.49136C8.19255 32.3773 7.95287 32.1461 7.95287 31.8644C7.95287 31.7962 7.96532 31.731 7.99022 31.6717L18.511 11.5783C19.6472 9.77855 21.6984 8.65484 23.9022 8.62815H23.9956C26.2305 8.62815 28.316 9.75483 29.4676 11.5783L39.9885 31.6746C40.0134 31.7339 40.0258 31.7962 40.0258 31.8644C40.0258 32.1461 39.783 32.3773 39.4873 32.3773H36.8384V39.9527H39.4873C44.1688 39.9527 47.9787 36.3237 47.9787 31.8644C47.9787 30.6725 47.711 29.525 47.185 28.4488L36.5209 8.07964Z" fill="#00AC69"/>
<path d="M23.7874 20.3574C21.3159 20.3574 19.3145 22.2668 19.3145 24.618C19.3145 26.9692 21.3159 28.8787 23.7874 28.8787C26.2588 28.8787 28.2603 26.9722 28.2603 24.618C28.2603 22.2639 26.2588 20.3574 23.7874 20.3574Z" fill="#00AC69"/>
<path d="M110.406 1.10021H107.754V8.67563H110.406C110.702 8.67563 110.945 8.90689 110.945 9.18856C110.945 9.25676 110.932 9.31902 110.907 9.37832L100.386 29.4747C99.2441 31.2833 97.1773 32.41 94.9611 32.4248H94.8988C92.667 32.4248 90.5847 31.3011 89.433 29.4806L87.3195 25.3949C87.6463 25.2941 88.2906 25.0747 89.0719 24.7071C93.3643 22.6672 96.3213 18.4184 96.3213 13.5174C96.3213 6.64465 90.4508 1.0498 83.2325 1.0498H70.4395C70.9717 2.37513 71.2768 3.8072 71.2768 5.31042C71.2768 6.46082 71.0962 7.56971 70.7756 8.62522H83.2325C86.0651 8.62522 88.3684 10.8193 88.3684 13.5174C88.3684 16.2155 86.2238 18.3443 83.466 18.4036H82.5944V18.4184H78.7783V18.4036H76.8329V18.4125C76.7986 18.4125 76.7644 18.4066 76.7302 18.4066C73.4992 18.4066 70.8783 20.8764 70.8254 23.9391V39.9795H78.7783V26.0146L80.4529 29.2553L80.4591 29.2642L82.3672 32.9526C82.4077 33.0296 82.4481 33.1038 82.4917 33.1749C85.0379 37.3644 89.7629 39.9735 94.8334 39.9972H94.9144C100.013 39.9972 104.766 37.3822 107.325 33.1749C107.365 33.1067 107.406 33.0385 107.443 32.9674L118.06 12.6872C118.076 12.6575 118.091 12.6279 118.107 12.5982C118.633 11.5249 118.901 10.3745 118.901 9.18263C118.901 4.72336 115.091 1.09428 110.409 1.09428" fill="#00AC69"/>
<path d="M128.625 7.8778L131.529 1.72852H132.709L135.622 7.8778H134.368L131.868 2.33633H132.348L129.858 7.8778H128.622H128.625ZM129.963 6.45463L130.287 5.55922H133.773L134.097 6.45463H129.967H129.963Z" fill="#244B5A"/>
<path d="M138.442 7.96686C137.938 7.96686 137.455 7.89867 136.995 7.75932C136.534 7.62293 136.167 7.44503 135.896 7.22859L136.31 6.34208C136.568 6.5348 136.889 6.69787 137.269 6.82536C137.648 6.95286 138.041 7.01808 138.439 7.01808C138.778 7.01808 139.049 6.9825 139.261 6.91135C139.469 6.84019 139.625 6.74531 139.721 6.62671C139.821 6.50811 139.868 6.37173 139.868 6.21755C139.868 6.03076 139.796 5.87955 139.656 5.76391C139.516 5.64828 139.332 5.55933 139.108 5.49114C138.884 5.42295 138.635 5.36068 138.361 5.30138C138.087 5.24208 137.813 5.17389 137.539 5.09384C137.266 5.01378 137.017 4.91298 136.792 4.78548C136.568 4.66096 136.385 4.49196 136.245 4.28144C136.105 4.07093 136.033 3.80112 136.033 3.47202C136.033 3.14291 136.126 2.83159 136.313 2.55288C136.5 2.27418 136.786 2.05181 137.169 1.88577C137.552 1.71974 138.041 1.63672 138.632 1.63672C139.018 1.63672 139.404 1.68416 139.784 1.77607C140.163 1.86798 140.497 2.00437 140.78 2.1793L140.403 3.06582C140.114 2.90275 139.815 2.78119 139.51 2.70113C139.202 2.62108 138.906 2.58253 138.626 2.58253C138.293 2.58253 138.025 2.62108 137.82 2.69817C137.614 2.77526 137.462 2.8731 137.368 2.99763C137.272 3.11919 137.225 3.26151 137.225 3.41865C137.225 3.60544 137.294 3.75665 137.434 3.87228C137.571 3.98792 137.754 4.07686 137.978 4.13913C138.202 4.20436 138.455 4.26662 138.729 4.32888C139.006 4.39115 139.279 4.45934 139.553 4.53643C139.827 4.61352 140.076 4.71136 140.3 4.83589C140.525 4.95745 140.705 5.12645 140.845 5.33696C140.985 5.54747 141.054 5.81432 141.054 6.1375C141.054 6.46068 140.96 6.76903 140.774 7.04773C140.587 7.32644 140.297 7.54881 139.911 7.71484C139.525 7.88088 139.037 7.9639 138.445 7.9639L138.442 7.96686Z" fill="#244B5A"/>
<path d="M144.244 7.96686C143.74 7.96686 143.258 7.89867 142.797 7.75932C142.336 7.62293 141.969 7.44503 141.698 7.22859L142.112 6.34208C142.371 6.5348 142.691 6.69787 143.071 6.82536C143.451 6.95286 143.843 7.01808 144.241 7.01808C144.581 7.01808 144.851 6.9825 145.063 6.91135C145.272 6.84019 145.427 6.74531 145.524 6.62671C145.623 6.50811 145.67 6.37173 145.67 6.21755C145.67 6.03076 145.598 5.87955 145.458 5.76391C145.318 5.64828 145.135 5.55933 144.911 5.49114C144.686 5.42295 144.437 5.36068 144.163 5.30138C143.89 5.24208 143.616 5.17389 143.342 5.09384C143.068 5.01378 142.819 4.91298 142.595 4.78548C142.371 4.66096 142.187 4.49196 142.047 4.28144C141.907 4.07093 141.835 3.80112 141.835 3.47202C141.835 3.14291 141.929 2.83159 142.115 2.55288C142.302 2.27418 142.588 2.05181 142.971 1.88577C143.354 1.71974 143.843 1.63672 144.434 1.63672C144.82 1.63672 145.206 1.68416 145.586 1.77607C145.966 1.86798 146.299 2.00437 146.582 2.1793L146.205 3.06582C145.916 2.90275 145.617 2.78119 145.312 2.70113C145.004 2.62108 144.708 2.58253 144.428 2.58253C144.095 2.58253 143.827 2.62108 143.622 2.69817C143.416 2.77526 143.264 2.8731 143.171 2.99763C143.074 3.11919 143.027 3.26151 143.027 3.41865C143.027 3.60544 143.096 3.75665 143.236 3.87228C143.373 3.98792 143.557 4.07686 143.781 4.13913C144.005 4.20436 144.257 4.26662 144.531 4.32888C144.808 4.39115 145.082 4.45934 145.356 4.53643C145.63 4.61352 145.879 4.71136 146.103 4.83589C146.327 4.95745 146.507 5.12645 146.647 5.33696C146.787 5.54747 146.856 5.81432 146.856 6.1375C146.856 6.46068 146.763 6.76903 146.576 7.04773C146.389 7.32644 146.1 7.54881 145.714 7.71484C145.328 7.88088 144.839 7.9639 144.248 7.9639L144.244 7.96686Z" fill="#244B5A"/>
<path d="M151.067 7.96683C150.563 7.96683 150.099 7.88677 149.676 7.72963C149.253 7.57249 148.882 7.35012 148.571 7.06549C148.257 6.78085 148.014 6.44878 147.843 6.06334C147.671 5.68086 147.584 5.25984 147.584 4.80324C147.584 4.34664 147.671 3.92562 147.843 3.54314C148.014 3.16066 148.257 2.82562 148.571 2.54099C148.885 2.25636 149.253 2.03695 149.676 1.87684C150.099 1.71674 150.56 1.63965 151.058 1.63965C151.556 1.63965 152.026 1.7197 152.446 1.87684C152.866 2.03399 153.234 2.25636 153.548 2.54099C153.862 2.82562 154.105 3.1577 154.276 3.54314C154.448 3.92562 154.535 4.34664 154.535 4.80324C154.535 5.25984 154.448 5.68086 154.276 6.06927C154.105 6.45471 153.862 6.78975 153.548 7.07142C153.234 7.35309 152.866 7.57249 152.446 7.72963C152.026 7.88677 151.565 7.96683 151.067 7.96683V7.96683ZM151.058 6.96468C151.385 6.96468 151.684 6.91131 151.961 6.80754C152.238 6.70376 152.477 6.55255 152.68 6.3539C152.882 6.15822 153.041 5.92992 153.156 5.669C153.271 5.40809 153.327 5.12049 153.327 4.80324C153.327 4.48599 153.271 4.19839 153.156 3.93748C153.041 3.67656 152.885 3.44826 152.68 3.25258C152.474 3.05689 152.238 2.90568 151.961 2.79894C151.684 2.6922 151.382 2.6418 151.058 2.6418C150.734 2.6418 150.432 2.69517 150.158 2.79894C149.884 2.90568 149.645 3.05392 149.439 3.25258C149.234 3.44826 149.072 3.67656 148.96 3.93748C148.845 4.19839 148.789 4.48599 148.789 4.80324C148.789 5.12049 148.845 5.39919 148.96 5.66307C149.075 5.92695 149.231 6.15525 149.436 6.3539C149.639 6.54959 149.878 6.7008 150.155 6.80754C150.432 6.91427 150.734 6.96468 151.058 6.96468V6.96468Z" fill="#244B5A"/>
<path d="M158.497 7.96683C158.005 7.96683 157.548 7.88974 157.128 7.7326C156.707 7.57842 156.34 7.35902 156.032 7.07438C155.721 6.78975 155.481 6.45471 155.307 6.06927C155.135 5.68383 155.048 5.25984 155.048 4.80324C155.048 4.34664 155.135 3.92562 155.307 3.53721C155.478 3.15177 155.721 2.81673 156.035 2.5321C156.349 2.24746 156.714 2.02806 157.131 1.87388C157.548 1.7197 158.005 1.63965 158.503 1.63965C159.033 1.63965 159.515 1.72563 159.951 1.8976C160.387 2.06956 160.757 2.32751 161.056 2.66552L160.281 3.35931C160.047 3.11915 159.786 2.93829 159.496 2.81969C159.207 2.7011 158.892 2.63883 158.556 2.63883C158.22 2.63883 157.909 2.6922 157.629 2.79597C157.349 2.90271 157.106 3.05096 156.9 3.24368C156.695 3.4364 156.533 3.6647 156.421 3.92858C156.306 4.19246 156.25 4.48303 156.25 4.79731C156.25 5.11159 156.306 5.40216 156.421 5.66604C156.536 5.92992 156.695 6.15822 156.9 6.35094C157.106 6.54366 157.349 6.69487 157.629 6.79864C157.909 6.90538 158.217 6.95578 158.556 6.95578C158.896 6.95578 159.207 6.89649 159.496 6.77492C159.786 6.65336 160.047 6.4725 160.281 6.22641L161.056 6.9291C160.754 7.26414 160.387 7.51616 159.951 7.69406C159.515 7.86899 159.029 7.95793 158.494 7.95793L158.497 7.96683Z" fill="#244B5A"/>
<path d="M162.214 7.87777V1.73145H163.412V7.87777H162.214Z" fill="#244B5A"/>
<path d="M163.882 7.8778L166.786 1.72852H167.966L170.879 7.8778H169.625L167.125 2.33633H167.605L165.115 7.8778H163.879H163.882ZM165.22 6.45463L165.544 5.55922H169.03L169.354 6.45463H165.224H165.22Z" fill="#244B5A"/>
<path d="M174.689 7.96683C174.198 7.96683 173.74 7.88974 173.32 7.7326C172.9 7.57842 172.532 7.35902 172.224 7.07438C171.913 6.78975 171.673 6.45471 171.499 6.06927C171.328 5.68383 171.24 5.25984 171.24 4.80324C171.24 4.34664 171.328 3.92562 171.499 3.53721C171.67 3.15177 171.913 2.81673 172.227 2.5321C172.542 2.24746 172.906 2.02806 173.323 1.87388C173.74 1.7197 174.198 1.63965 174.696 1.63965C175.225 1.63965 175.707 1.72563 176.143 1.8976C176.579 2.06956 176.949 2.32751 177.248 2.66552L176.473 3.35931C176.239 3.11915 175.978 2.93829 175.688 2.81969C175.399 2.7011 175.085 2.63883 174.748 2.63883C174.412 2.63883 174.101 2.6922 173.821 2.79597C173.541 2.90271 173.298 3.05096 173.093 3.24368C172.887 3.4364 172.725 3.6647 172.613 3.92858C172.498 4.19246 172.442 4.48303 172.442 4.79731C172.442 5.11159 172.498 5.40216 172.613 5.66604C172.728 5.92992 172.887 6.15822 173.093 6.35094C173.298 6.54366 173.541 6.69487 173.821 6.79864C174.101 6.90538 174.409 6.95578 174.748 6.95578C175.088 6.95578 175.399 6.89649 175.688 6.77492C175.978 6.65336 176.239 6.4725 176.473 6.22641L177.248 6.9291C176.946 7.26414 176.579 7.51616 176.143 7.69405C175.707 7.86899 175.222 7.95793 174.686 7.95793L174.689 7.96683ZM174.257 9.88218C174.092 9.88218 173.936 9.86735 173.796 9.83474C173.656 9.80213 173.525 9.75765 173.41 9.69835L173.622 9.17949C173.721 9.22693 173.821 9.26251 173.92 9.28623C174.023 9.30995 174.132 9.32181 174.247 9.32181C174.425 9.32181 174.552 9.29216 174.624 9.23286C174.699 9.17356 174.736 9.09944 174.736 9.00456C174.736 8.91561 174.699 8.84742 174.621 8.79405C174.543 8.74068 174.419 8.71399 174.247 8.71399H173.961L174.21 7.81858H174.836L174.708 8.31076C174.979 8.34041 175.181 8.42343 175.312 8.55982C175.443 8.6962 175.511 8.85928 175.511 9.04607C175.511 9.30402 175.396 9.5086 175.169 9.65684C174.941 9.80509 174.636 9.88218 174.257 9.88218Z" fill="#244B5A"/>
<path d="M177.042 7.87791L179.946 1.72863H181.126L184.039 7.87791H182.785L180.286 2.33644H180.765L178.275 7.87791H177.039H177.042ZM178.381 6.45474L178.704 5.55933H182.191L182.514 6.45474H178.384H178.381ZM181.201 1.22756C181.054 1.22756 180.921 1.20087 180.799 1.14454C180.678 1.0882 180.572 1.02297 180.475 0.942921C180.379 0.862868 180.289 0.794674 180.205 0.735375C180.117 0.676077 180.033 0.646427 179.946 0.646427C179.819 0.646427 179.713 0.693866 179.632 0.785779C179.551 0.880658 179.507 1.00815 179.495 1.17122H178.879C178.891 0.809499 178.984 0.5219 179.159 0.311389C179.333 0.100878 179.573 -0.00585938 179.875 -0.00585938C180.021 -0.00585938 180.158 0.02379 180.279 0.0830888C180.404 0.142388 180.513 0.207616 180.606 0.284705C180.703 0.361793 180.793 0.427022 180.877 0.486321C180.964 0.545619 181.045 0.575269 181.126 0.575269C181.254 0.575269 181.363 0.530795 181.443 0.444811C181.528 0.355863 181.571 0.234301 181.577 0.0771589H182.194C182.187 0.418127 182.094 0.693866 181.917 0.907342C181.739 1.12082 181.5 1.22756 181.198 1.22756H181.201Z" fill="#244B5A"/>
<path d="M187.883 7.96683C187.379 7.96683 186.915 7.88678 186.492 7.72963C186.069 7.57249 185.698 7.35012 185.387 7.06549C185.073 6.78085 184.83 6.44878 184.659 6.06334C184.488 5.68086 184.4 5.25984 184.4 4.80324C184.4 4.34664 184.488 3.92562 184.659 3.54314C184.83 3.16066 185.073 2.82562 185.387 2.54099C185.702 2.25636 186.069 2.03695 186.492 1.87684C186.915 1.71674 187.376 1.63965 187.874 1.63965C188.372 1.63965 188.842 1.7197 189.262 1.87684C189.683 2.03399 190.05 2.25636 190.364 2.54099C190.679 2.82562 190.921 3.1577 191.093 3.54314C191.264 3.92562 191.351 4.34664 191.351 4.80324C191.351 5.25984 191.264 5.68086 191.093 6.06927C190.921 6.45471 190.679 6.78975 190.364 7.07142C190.05 7.35309 189.683 7.57249 189.262 7.72963C188.842 7.88678 188.381 7.96683 187.883 7.96683V7.96683ZM187.874 6.96468C188.201 6.96468 188.5 6.91131 188.777 6.80754C189.054 6.70377 189.294 6.55255 189.496 6.3539C189.698 6.15822 189.857 5.92992 189.972 5.669C190.087 5.40809 190.143 5.12049 190.143 4.80324C190.143 4.48599 190.087 4.19839 189.972 3.93748C189.857 3.67656 189.701 3.44826 189.496 3.25258C189.29 3.05689 189.054 2.90568 188.777 2.79894C188.5 2.6922 188.198 2.6418 187.874 2.6418C187.55 2.6418 187.248 2.69517 186.975 2.79894C186.701 2.90568 186.461 3.05392 186.256 3.25258C186.05 3.44826 185.888 3.67656 185.776 3.93748C185.661 4.19839 185.605 4.48599 185.605 4.80324C185.605 5.12049 185.661 5.39919 185.776 5.66307C185.891 5.92695 186.047 6.15525 186.252 6.3539C186.455 6.54959 186.694 6.7008 186.971 6.80754C187.248 6.91428 187.55 6.96468 187.874 6.96468Z" fill="#244B5A"/>
<path d="M130.735 17.4602H134.377V18.4178H129.537V12.2686H134.249V13.2262H130.735V17.4602V17.4602ZM130.642 14.8243H133.851V15.7642H130.642V14.8243Z" fill="#244B5A"/>
<path d="M135.715 18.4178V12.2686H136.702L139.522 16.7575H139.005L141.782 12.2686H142.769L142.778 18.4178H141.645L141.636 13.9645H141.875L139.516 17.7151H138.981L136.584 13.9645H136.861V18.4178H135.718H135.715Z" fill="#244B5A"/>
<path d="M144.521 18.4178V12.2686H147.176C147.749 12.2686 148.238 12.3575 148.648 12.5324C149.056 12.7074 149.374 12.9594 149.595 13.2885C149.816 13.6176 149.928 14.006 149.928 14.4567C149.928 14.9074 149.816 15.2958 149.595 15.6249C149.374 15.954 149.059 16.206 148.648 16.3809C148.241 16.5559 147.749 16.6448 147.176 16.6448H145.184L145.719 16.1082V18.4178H144.521V18.4178ZM145.719 16.2297L145.184 15.6753H147.12C147.649 15.6753 148.048 15.5685 148.315 15.3551C148.583 15.1416 148.717 14.8421 148.717 14.4537C148.717 14.0653 148.583 13.7599 148.315 13.5494C148.048 13.3389 147.649 13.2322 147.12 13.2322H145.184L145.719 12.6688V16.2267V16.2297Z" fill="#244B5A"/>
<path d="M151.213 18.4178V12.2686H153.868C154.441 12.2686 154.93 12.3575 155.341 12.5324C155.748 12.7074 156.066 12.9594 156.287 13.2885C156.508 13.6176 156.62 14.006 156.62 14.4567C156.62 14.9074 156.508 15.2958 156.287 15.6219C156.066 15.948 155.751 16.1971 155.341 16.3691C154.933 16.541 154.441 16.627 153.868 16.627H151.876L152.412 16.1082V18.4178H151.213V18.4178ZM152.412 16.2297L151.876 15.6842H153.812C154.341 15.6842 154.74 15.5745 155.007 15.358C155.275 15.1416 155.409 14.8392 155.409 14.4537C155.409 14.0683 155.275 13.7599 155.007 13.5494C154.74 13.3389 154.341 13.2322 153.812 13.2322H151.876L152.412 12.6688V16.2267V16.2297ZM155.437 18.4178L153.806 16.1882H155.088L156.729 18.4178H155.437V18.4178Z" fill="#244B5A"/>
<path d="M159.154 17.4602H162.796V18.4178H157.955V12.2686H162.668V13.2262H159.154V17.4602V17.4602ZM159.06 14.8243H162.269V15.7642H159.06V14.8243V14.8243Z" fill="#244B5A"/>
<path d="M166.132 18.5069C165.628 18.5069 165.146 18.4387 164.685 18.2994C164.224 18.163 163.857 17.9851 163.586 17.7686L164 16.8821C164.259 17.0748 164.579 17.2379 164.959 17.3654C165.339 17.4929 165.731 17.5581 166.129 17.5581C166.469 17.5581 166.739 17.5225 166.951 17.4514C167.16 17.3802 167.315 17.2853 167.412 17.1668C167.511 17.0482 167.558 16.9118 167.558 16.7576C167.558 16.5708 167.486 16.4196 167.346 16.304C167.206 16.1883 167.023 16.0994 166.798 16.0312C166.574 15.963 166.325 15.9007 166.051 15.8414C165.777 15.7821 165.504 15.7139 165.23 15.6339C164.956 15.5538 164.707 15.453 164.483 15.3255C164.259 15.201 164.075 15.032 163.935 14.8215C163.795 14.611 163.723 14.3412 163.723 14.0121C163.723 13.6829 163.817 13.3716 164.003 13.0929C164.19 12.8142 164.476 12.5918 164.859 12.4258C165.242 12.2598 165.731 12.1768 166.322 12.1768C166.708 12.1768 167.094 12.2242 167.474 12.3161C167.854 12.408 168.187 12.5444 168.47 12.7193L168.093 13.6059C167.804 13.4428 167.505 13.3212 167.2 13.2412C166.892 13.1611 166.596 13.1226 166.316 13.1226C165.983 13.1226 165.715 13.1611 165.51 13.2382C165.304 13.3153 165.152 13.4131 165.058 13.5377C164.962 13.6592 164.915 13.8015 164.915 13.9587C164.915 14.1455 164.984 14.2967 165.124 14.4123C165.261 14.528 165.444 14.6169 165.669 14.6792C165.893 14.7444 166.145 14.8067 166.419 14.8689C166.696 14.9312 166.97 14.9994 167.244 15.0765C167.517 15.1536 167.767 15.2514 167.991 15.3759C168.215 15.4975 168.395 15.6665 168.535 15.877C168.675 16.0875 168.744 16.3544 168.744 16.6775C168.744 17.0007 168.65 17.3091 168.464 17.5878C168.277 17.8665 167.988 18.0888 167.602 18.2549C167.216 18.4209 166.727 18.5039 166.135 18.5039L166.132 18.5069Z" fill="#244B5A"/>
<path d="M169.018 18.4178L171.922 12.2686H173.102L176.015 18.4178H174.761L172.261 12.8764H172.741L170.25 18.4178H169.015H169.018ZM170.356 16.9947L170.68 16.0993H174.166L174.49 16.9947H170.359H170.356Z" fill="#244B5A"/>
<path d="M176.837 18.4178V12.2686H179.492C180.065 12.2686 180.553 12.3575 180.964 12.5324C181.372 12.7074 181.689 12.9594 181.91 13.2885C182.131 13.6176 182.243 14.006 182.243 14.4567C182.243 14.9074 182.131 15.2958 181.91 15.6219C181.689 15.948 181.375 16.1971 180.964 16.3691C180.556 16.541 180.065 16.627 179.492 16.627H177.5L178.035 16.1082V18.4178H176.837V18.4178ZM178.035 16.2297L177.5 15.6842H179.436C179.965 15.6842 180.363 15.5745 180.631 15.358C180.899 15.1416 181.033 14.8392 181.033 14.4537C181.033 14.0683 180.899 13.7599 180.631 13.5494C180.363 13.3389 179.965 13.2322 179.436 13.2322H177.5L178.035 12.6688V16.2267V16.2297ZM181.061 18.4178L179.43 16.1882H180.712L182.352 18.4178H181.061V18.4178Z" fill="#244B5A"/>
<path d="M183.579 18.4178V12.2686H184.777V18.4178H183.579V18.4178Z" fill="#244B5A"/>
<path d="M185.605 18.4178L188.509 12.2686H189.689L192.602 18.4178H191.348L188.849 12.8764H189.328L186.838 18.4178H185.602H185.605ZM186.944 16.9947L187.267 16.0993H190.754L191.077 16.9947H186.947H186.944Z" fill="#244B5A"/>
<path d="M193.424 18.4178V12.2686H194.622V17.4513H197.997V18.4178H193.424Z" fill="#244B5A"/>
<path d="M129.537 28.9589V22.8096H132.357C133.057 22.8096 133.673 22.9371 134.199 23.195C134.729 23.453 135.139 23.8088 135.435 24.2654C135.731 24.722 135.877 25.2616 135.877 25.8812C135.877 26.5009 135.731 27.0346 135.435 27.4942C135.139 27.9537 134.729 28.3125 134.199 28.5704C133.67 28.8284 133.057 28.9559 132.357 28.9559H129.537V28.9589ZM130.735 27.9923H132.304C132.789 27.9923 133.21 27.9033 133.561 27.7284C133.916 27.5535 134.187 27.3074 134.383 26.9901C134.579 26.6729 134.673 26.3052 134.673 25.8842C134.673 25.4632 134.576 25.0866 134.383 24.7724C134.19 24.4581 133.916 24.215 133.561 24.04C133.206 23.8651 132.789 23.7761 132.304 23.7761H130.735V27.9923Z" fill="#244B5A"/>
<path d="M136.238 28.9589L139.142 22.8096H140.322L143.236 28.9589H141.981L139.482 23.4174H139.961L137.471 28.9589H136.235H136.238ZM137.577 27.5357L137.9 26.6403H141.387L141.71 27.5357H137.58H137.577Z" fill="#244B5A"/>
<path d="M145.997 28.9589V22.8096H148.652C149.224 22.8096 149.713 22.8985 150.124 23.0734C150.532 23.2484 150.849 23.5004 151.07 23.8295C151.291 24.1586 151.403 24.547 151.403 24.9977C151.403 25.4484 151.291 25.8368 151.07 26.1629C150.849 26.4891 150.535 26.7381 150.124 26.9101C149.716 27.082 149.224 27.168 148.652 27.168H146.66L147.195 26.6492V28.9589H145.997V28.9589ZM147.195 26.7707L146.66 26.2252H148.596C149.125 26.2252 149.523 26.1155 149.791 25.899C150.059 25.6826 150.192 25.3802 150.192 24.9947C150.192 24.6093 150.059 24.3009 149.791 24.0904C149.523 23.8799 149.125 23.7732 148.596 23.7732H146.66L147.195 23.2098V26.7678V26.7707ZM150.22 28.9589L148.589 26.7292H149.872L151.512 28.9589H150.22Z" fill="#244B5A"/>
<path d="M153.934 28.0012H157.576V28.9589H152.736V22.8096H157.448V23.7672H153.934V28.0012V28.0012ZM153.841 25.3653H157.05V26.3052H153.841V25.3653Z" fill="#244B5A"/>
<path d="M161.927 29.0449C161.423 29.0449 160.959 28.9678 160.539 28.8107C160.119 28.6565 159.752 28.4371 159.437 28.1525C159.123 27.8678 158.88 27.5328 158.709 27.1474C158.538 26.7619 158.45 26.3379 158.45 25.8813C158.45 25.4247 158.538 25.0037 158.709 24.6153C158.88 24.2299 159.126 23.8948 159.44 23.6102C159.755 23.3256 160.128 23.1061 160.551 22.952C160.975 22.7978 161.439 22.7207 161.943 22.7207C162.491 22.7207 162.982 22.8067 163.421 22.9757C163.86 23.1447 164.231 23.3937 164.533 23.7229L163.776 24.4255C163.524 24.1854 163.253 24.0075 162.961 23.8948C162.668 23.7822 162.348 23.7229 161.996 23.7229C161.644 23.7229 161.345 23.7762 161.056 23.88C160.766 23.9838 160.517 24.135 160.309 24.3277C160.1 24.5204 159.938 24.7487 159.823 25.0126C159.708 25.2765 159.652 25.567 159.652 25.8813C159.652 26.1956 159.708 26.4773 159.823 26.7412C159.938 27.005 160.097 27.2333 160.309 27.432C160.517 27.6277 160.763 27.7789 161.046 27.8856C161.33 27.9924 161.644 28.0428 161.986 28.0428C162.307 28.0428 162.615 27.9953 162.914 27.8975C163.213 27.7996 163.496 27.6395 163.767 27.4112L164.449 28.2622C164.109 28.5201 163.717 28.7158 163.272 28.8463C162.827 28.9767 162.376 29.0449 161.921 29.0449H161.927ZM163.319 28.1139V25.8131H164.452V28.2651L163.319 28.1169V28.1139Z" fill="#244B5A"/>
<path d="M166.033 28.9589V22.8096H167.231V28.9589H166.033Z" fill="#244B5A"/>
<path d="M167.35 28.959L170.254 22.8097H171.434L174.347 28.959H173.093L170.593 23.4175H171.073L168.582 28.959H167.347H167.35ZM168.688 27.5358L169.012 26.6404H172.498L172.822 27.5358H168.691H168.688ZM171.508 22.3086C171.362 22.3086 171.228 22.2819 171.107 22.2256C170.985 22.1693 170.88 22.1011 170.783 22.024C170.687 21.9439 170.596 21.8757 170.512 21.8164C170.425 21.7571 170.341 21.7275 170.254 21.7275C170.126 21.7275 170.02 21.7749 169.94 21.8668C169.859 21.9617 169.815 22.0892 169.803 22.2523H169.186C169.199 21.8906 169.292 21.603 169.466 21.3924C169.641 21.1819 169.88 21.0752 170.182 21.0752C170.329 21.0752 170.466 21.1048 170.587 21.1641C170.711 21.2234 170.82 21.2916 170.914 21.3658C171.01 21.4428 171.101 21.5081 171.185 21.5674C171.272 21.6267 171.353 21.6563 171.434 21.6563C171.561 21.6563 171.67 21.6118 171.751 21.5259C171.832 21.4399 171.879 21.3154 171.885 21.1582H172.501C172.495 21.4992 172.402 21.7749 172.224 21.9884C172.047 22.2019 171.807 22.3086 171.505 22.3086H171.508Z" fill="#244B5A"/>
<path d="M178.194 29.045C177.69 29.045 177.226 28.9649 176.803 28.8078C176.38 28.6506 176.009 28.4282 175.698 28.1436C175.387 27.859 175.141 27.5269 174.97 27.1415C174.798 26.759 174.711 26.338 174.711 25.8814C174.711 25.4248 174.798 25.0037 174.97 24.6213C175.141 24.2388 175.384 23.9037 175.698 23.6191C176.012 23.3345 176.38 23.1151 176.803 22.955C177.226 22.7949 177.687 22.7178 178.185 22.7178C178.683 22.7178 179.153 22.7978 179.573 22.955C179.993 23.1121 180.361 23.3345 180.675 23.6191C180.989 23.9037 181.232 24.2358 181.403 24.6213C181.575 25.0037 181.662 25.4248 181.662 25.8814C181.662 26.338 181.575 26.759 181.403 27.1474C181.232 27.5358 180.989 27.8679 180.675 28.1495C180.361 28.4312 179.993 28.6506 179.573 28.8078C179.153 28.9649 178.692 29.045 178.194 29.045V29.045ZM178.185 28.0428C178.512 28.0428 178.811 27.9894 179.088 27.8857C179.365 27.7819 179.604 27.6307 179.807 27.432C180.009 27.2363 180.168 27.008 180.283 26.7471C180.398 26.4862 180.454 26.1986 180.454 25.8814C180.454 25.5641 180.398 25.2765 180.283 25.0156C180.168 24.7547 180.012 24.5264 179.807 24.3307C179.604 24.135 179.365 23.9838 179.088 23.8771C178.811 23.7703 178.509 23.7199 178.185 23.7199C177.861 23.7199 177.559 23.7733 177.285 23.8771C177.011 23.9838 176.772 24.132 176.566 24.3307C176.361 24.5264 176.199 24.7547 176.087 25.0156C175.972 25.2765 175.916 25.5641 175.916 25.8814C175.916 26.1986 175.972 26.4773 176.087 26.7412C176.202 27.0051 176.358 27.2334 176.563 27.432C176.766 27.6277 177.005 27.7789 177.282 27.8857C177.559 27.9924 177.861 28.0428 178.185 28.0428Z" fill="#244B5A"/>
<path d="M129.537 39.4989V33.3496H132.357C133.057 33.3496 133.674 33.4771 134.2 33.7351C134.729 33.993 135.14 34.3488 135.435 34.8054C135.731 35.262 135.877 35.8016 135.877 36.4213C135.877 37.041 135.731 37.5746 135.435 38.0342C135.14 38.4938 134.729 38.8525 134.2 39.1105C133.67 39.3684 133.057 39.4959 132.357 39.4959H129.537V39.4989ZM130.735 38.5323H132.304C132.79 38.5323 133.21 38.4434 133.562 38.2684C133.916 38.0935 134.187 37.8474 134.383 37.5302C134.579 37.2129 134.673 36.8453 134.673 36.4243C134.673 36.0032 134.576 35.6267 134.383 35.3124C134.19 34.9981 133.916 34.755 133.562 34.5801C133.207 34.4051 132.79 34.3162 132.304 34.3162H130.735V38.5323V38.5323Z" fill="#244B5A"/>
<path d="M138.352 38.5412H141.994V39.4989H137.154V33.3496H141.866V34.3073H138.352V38.5412V38.5412ZM138.259 35.9054H141.468V36.8453H138.259V35.9054Z" fill="#244B5A"/>
<path d="M147.783 39.4989L144.963 33.3496H146.264L148.782 38.9089H148.035L150.581 33.3496H151.78L148.969 39.4989H147.789H147.783Z" fill="#244B5A"/>
<path d="M152.595 39.4989V33.3496H153.794V39.4989H152.595Z" fill="#244B5A"/>
<path d="M157.538 39.585C157.034 39.585 156.552 39.5168 156.091 39.3774C155.63 39.2411 155.263 39.0632 154.992 38.8467L155.406 37.9602C155.665 38.1529 155.985 38.316 156.365 38.4435C156.745 38.571 157.137 38.6362 157.535 38.6362C157.875 38.6362 158.145 38.6006 158.357 38.5295C158.566 38.4583 158.721 38.3634 158.818 38.2448C158.917 38.1262 158.964 37.9899 158.964 37.8357C158.964 37.6489 158.892 37.4977 158.752 37.382C158.612 37.2664 158.429 37.1775 158.204 37.1093C157.98 37.0411 157.731 36.9788 157.457 36.9195C157.184 36.8602 156.91 36.792 156.636 36.712C156.362 36.6319 156.113 36.5311 155.889 36.4036C155.665 36.2791 155.481 36.1101 155.341 35.8996C155.201 35.6891 155.129 35.4193 155.129 35.0901C155.129 34.761 155.223 34.4497 155.409 34.174C155.596 33.8953 155.882 33.6729 156.265 33.5069C156.648 33.3408 157.137 33.2578 157.728 33.2578C158.114 33.2578 158.5 33.3053 158.88 33.3972C159.26 33.492 159.593 33.6255 159.876 33.8004L159.499 34.6869C159.21 34.5238 158.911 34.4023 158.606 34.3222C158.298 34.2422 158.002 34.2036 157.722 34.2036C157.389 34.2036 157.121 34.2422 156.916 34.3163C156.71 34.3934 156.558 34.4912 156.464 34.6158C156.368 34.7403 156.321 34.8796 156.321 35.0368C156.321 35.2236 156.39 35.3748 156.53 35.4904C156.667 35.6031 156.85 35.695 157.075 35.7573C157.299 35.8225 157.551 35.8847 157.825 35.947C158.102 36.0093 158.376 36.0775 158.65 36.1546C158.923 36.2316 159.173 36.3295 159.397 36.454C159.621 36.5785 159.801 36.7446 159.941 36.9551C160.081 37.1656 160.15 37.4324 160.15 37.7556C160.15 38.0788 160.056 38.3872 159.87 38.6659C159.683 38.9446 159.394 39.1669 159.008 39.333C158.622 39.499 158.133 39.582 157.541 39.582L157.538 39.585Z" fill="#244B5A"/>
<path d="M162.537 38.5412H166.179V39.4989H161.339V33.3496H166.052V34.3073H162.537V38.5412V38.5412ZM162.444 35.9054H165.653V36.8453H162.444V35.9054Z" fill="#244B5A"/>
<path d="M170.291 39.5849C169.407 39.5849 168.713 39.3477 168.212 38.8733C167.711 38.3989 167.462 37.714 167.462 36.8186V33.3496H168.66V36.7741C168.66 37.4056 168.803 37.8652 169.09 38.1528C169.376 38.4404 169.781 38.5827 170.304 38.5827C170.826 38.5827 171.228 38.4404 171.511 38.1528C171.795 37.8652 171.935 37.4056 171.935 36.7741V33.3496H173.114V36.8186C173.114 37.714 172.865 38.3989 172.364 38.8733C171.863 39.3477 171.172 39.5849 170.294 39.5849H170.291Z" fill="#244B5A"/>
</g>
<defs>
<clipPath id="clip0_917_3659">
<rect width="198" height="40" fill="white"/>
</clipPath>
</defs>
</svg>
